PathFileType  4	(X/Y/Z) C:\Users\antoi\Documents\MyRepositories\mobilecap\ResultsAnalysis
DataRate	CameraRate	NumFrames	NumMarkers	Units	OrigDataRate	OrigDataStartFrame	OrigNumFrames
100.0	100.0	4	51	mm	100.0	977	1302
Frame#	Time	r_knee			r_shank_antsup			r_ankle			r_calc			r_5meta			r_toe			L_knee			L_shank_antsup			L_ankle			L_calc			L_5meta			L_toe			r_sh2			r_sh3			r_sh4			L_sh2			L_sh3			r_thigh1			r_thigh2			r_thigh3			r_thigh4			r_thigh5			L_thigh1			L_thigh2			L_thigh3			L_thigh4			r.ASIS			r.PSIS			L.ASIS			L.PSIS			C7			R_Shoulder			L_Shoulder			R_Sternum			L_Sternum			R_humerus			R_elbow_med			R_elbow_lat			R_forearm			R_wrist_radius			R_wrist_ulna			L_humerus			L_elbow_med			L_elbow_lat			L_forearm			L_wrist_radius			L_wrist_ulna			R_HJC			L_HJC			R_HJC_reg			L_HJC_reg			
		X1	Y1	Z1	X2	Y2	Z2	X3	Y3	Z3	X4	Y4	Z4	X5	Y5	Z5	X6	Y6	Z6	X7	Y7	Z7	X8	Y8	Z8	X9	Y9	Z9	X10	Y10	Z10	X11	Y11	Z11	X12	Y12	Z12	X13	Y13	Z13	X14	Y14	Z14	X15	Y15	Z15	X16	Y16	Z16	X17	Y17	Z17	X18	Y18	Z18	X19	Y19	Z19	X20	Y20	Z20	X21	Y21	Z21	X22	Y22	Z22	X23	Y23	Z23	X24	Y24	Z24	X25	Y25	Z25	X26	Y26	Z26	X27	Y27	Z27	X28	Y28	Z28	X29	Y29	Z29	X30	Y30	Z30	X31	Y31	Z31	X32	Y32	Z32	X33	Y33	Z33	X34	Y34	Z34	X35	Y35	Z35	X36	Y36	Z36	X37	Y37	Z37	X38	Y38	Z38	X39	Y39	Z39	X40	Y40	Z40	X41	Y41	Z41	X42	Y42	Z42	X43	Y43	Z43	X44	Y44	Z44	X45	Y45	Z45	X46	Y46	Z46	X47	Y47	Z47	X48	Y48	Z48	X49	Y49	Z49	X50	Y50	Z50	X51	Y51	Z51	

977	9.76000000	-207.05274	499.97602	-469.42059	-164.28587	430.03718	-466.23783	-269.33994	102.01178	-420.07990	-337.92553	64.82239	-452.46896	-166.66456	44.20943	-381.72860	-119.76498	70.52103	-437.38892	-202.00612	496.54810	-938.80941	-168.67798	406.02781	-964.58666	-264.12699	102.99751	-982.84175	-331.02143	63.39248	-941.01270	-158.88859	40.42597	-1025.18723	-119.31455	63.77200	-969.22329	-203.08197	326.52723	-428.28280	-241.18697	454.45644	-450.93461	-272.01369	346.29465	-429.19911	-255.50206	426.90735	-955.73757	-273.94327	307.69363	-980.25771	-232.54706	818.64088	-504.39801	-208.90090	711.93189	-483.67609	-264.80298	678.73555	-463.05623	-342.77459	792.27663	-512.21706	-314.40296	680.85187	-489.30359	-255.93492	767.36145	-935.69864	-206.96858	637.86918	-941.04932	-349.61356	727.24680	-874.51236	-298.76207	598.40793	-900.69890	-209.49165	937.83952	-580.47103	-374.43881	1020.47135	-665.14075	-202.49927	918.34890	-832.23834	-375.54403	1021.53697	-766.04317	-205.00509	1387.16635	-717.75229	-117.62822	1361.26827	-555.04796	-131.47108	1374.07583	-875.92207	-67.64837	1330.72814	-694.52394	-66.12046	1331.67186	-735.32848	-107.56834	1270.34232	-456.09767	-113.78250	1055.32517	-403.33650	-95.94755	1107.03398	-345.34585	23.54810	1137.35284	-409.26341	129.64233	1156.92293	-477.88268	151.45959	1133.83141	-461.35170	-116.12721	1291.40293	-965.46829	-114.43042	1055.20509	-1003.91176	-101.97169	1110.55519	-1065.26451	-7.91730	1137.46564	-1012.51292	121.77688	1154.91910	-948.87137	138.33705	1135.16736	-971.27757	-301.70676	879.47032	-603.82629	-297.54077	870.13436	-810.04393	-293.99660	874.63045	-615.28146	-295.82232	876.39064	-781.98959	
978	9.77000000	-209.93304	500.61297	-470.76276	-167.15592	431.14820	-467.53378	-269.48194	102.13496	-420.09120	-337.90613	64.80315	-452.41209	-166.65594	44.24529	-381.73519	-119.73755	70.49415	-437.41654	-204.30104	497.07006	-937.50378	-170.87439	406.79783	-963.39998	-264.29596	103.09014	-982.63500	-331.00934	63.43036	-940.99223	-158.88408	40.43350	-1025.17721	-119.24843	63.89808	-969.34600	-204.95295	327.35782	-429.08068	-244.25266	454.79858	-452.30052	-274.24880	346.43991	-430.26782	-257.86205	427.14195	-954.66737	-275.28499	308.15955	-979.71756	-230.18837	820.03748	-504.52239	-208.23943	712.58946	-484.32072	-264.57224	680.26909	-463.69654	-340.75879	795.21116	-512.60063	-314.21686	683.32968	-489.86158	-254.25642	768.67890	-934.99396	-207.24967	638.50286	-940.28728	-348.33375	730.08944	-873.33316	-299.57456	600.52670	-899.95016	-206.39828	941.19746	-580.40543	-372.16474	1022.38593	-665.34074	-199.29001	921.59427	-831.66087	-373.32925	1023.25365	-766.10079	-207.42631	1391.10459	-718.43532	-120.30845	1365.86618	-555.49229	-134.45734	1378.18081	-876.99405	-69.73889	1335.64766	-695.01686	-68.17522	1336.64078	-735.83459	-109.96367	1274.50290	-456.73354	-117.10153	1059.42319	-404.19363	-98.96250	1110.99606	-345.97793	20.78738	1140.69425	-409.73076	126.99905	1159.67110	-478.37176	148.68408	1136.43111	-461.83167	-119.34562	1295.11853	-966.45108	-117.93682	1058.78161	-1004.44762	-105.43190	1113.93451	-1065.72243	-11.10316	1140.38821	-1013.14838	118.73145	1157.07422	-949.69678	135.11923	1137.20660	-972.14433	-298.23627	882.09185	-603.59656	-293.83979	872.48777	-809.79696	-290.32115	877.53659	-614.97731	-292.24371	878.96978	-781.35868	
979	9.78000000	-212.78454	501.22965	-472.11703	-169.96996	432.10439	-468.90478	-269.58303	102.19774	-420.12397	-337.84135	64.76250	-452.36538	-166.64956	44.27291	-381.82723	-119.73773	70.48494	-437.49601	-206.36442	497.72385	-936.27712	-172.88445	407.72073	-961.99575	-264.45475	103.21178	-982.38005	-330.98984	63.45100	-940.91219	-158.88090	40.45335	-1025.15556	-119.23489	63.86682	-969.21876	-206.87977	328.25259	-429.96352	-247.28621	455.22805	-453.54240	-276.41123	346.69532	-431.34769	-260.09058	427.32869	-953.57535	-276.62394	308.51299	-979.13870	-227.72763	821.05033	-504.64859	-207.58165	713.02507	-485.13765	-264.29633	681.72897	-464.42140	-338.75911	797.99748	-513.07595	-314.00765	685.65248	-490.50256	-252.56793	769.89920	-934.16633	-207.48413	639.00409	-939.46117	-346.90961	732.96361	-872.57391	-300.31286	602.50619	-899.05295	-203.36944	944.34391	-580.28912	-369.91134	1024.09935	-665.36475	-196.17538	924.45516	-831.14523	-371.15266	1024.73721	-766.20251	-209.88399	1394.78804	-719.12873	-122.90354	1370.09421	-555.92338	-137.46034	1382.13912	-878.14521	-71.78938	1340.33920	-695.50564	-70.22838	1341.33112	-736.44715	-112.30798	1278.36180	-457.39639	-120.30791	1063.38628	-404.75750	-101.88666	1114.78131	-346.42819	18.05749	1143.81194	-410.14743	124.40258	1162.17135	-478.84132	145.94755	1138.79718	-462.28106	-122.59946	1298.55404	-967.29953	-121.31748	1062.11799	-1004.85416	-108.73347	1117.14256	-1066.29377	-14.17384	1143.13537	-1013.81026	115.84866	1159.11376	-950.47528	132.00115	1139.12665	-972.98145	-294.83208	884.51636	-603.28948	-290.28122	874.54966	-809.46940	-286.74283	880.17528	-614.60419	-288.78811	881.22661	-780.74061	
980	9.79000000	-215.51067	501.81618	-473.43892	-172.72408	432.98775	-470.32148	-269.74444	102.21687	-420.30129	-337.83947	64.75324	-452.40633	-166.63513	44.27508	-381.97091	-119.76408	70.51431	-437.57223	-208.30026	498.34564	-935.16161	-174.88495	408.53682	-960.55842	-264.60055	103.31979	-982.09576	-330.99041	63.43596	-940.81529	-158.88024	40.48652	-1025.13132	-119.23429	63.81277	-969.02464	-208.78762	329.01415	-430.98694	-250.29160	455.71292	-454.71061	-278.37199	346.95664	-432.20362	-262.23907	427.47583	-952.42141	-278.16683	308.45720	-978.37567	-225.28995	821.76059	-505.10793	-206.93865	713.43827	-485.92915	-263.99376	683.12077	-465.11811	-336.71129	800.61795	-513.39608	-313.70326	687.85057	-491.09043	-250.91276	771.00545	-933.42128	-207.67211	639.38222	-938.34473	-345.55664	735.70892	-871.97599	-301.06170	604.29066	-897.82264	-200.40747	947.13266	-580.36079	-367.63816	1025.53384	-665.39962	-193.18257	926.88730	-830.89711	-369.02281	1025.99437	-766.30879	-212.32338	1398.12466	-719.79633	-125.46114	1373.97525	-556.32520	-140.45336	1385.72778	-879.17455	-73.86298	1344.75908	-696.06537	-72.34348	1345.83207	-737.31764	-114.61679	1281.89284	-457.99506	-123.42904	1067.02073	-405.23111	-104.78664	1118.34981	-346.84495	15.36307	1146.69839	-410.62302	121.85070	1164.45687	-479.17090	143.22178	1140.94035	-462.62977	-125.78552	1301.75097	-968.07229	-124.73109	1065.24540	-1005.33047	-111.89105	1120.11362	-1066.81695	-17.13571	1145.70634	-1014.50074	113.03066	1161.00211	-951.15074	129.05560	1140.89651	-973.62520	-291.48890	886.62136	-603.10316	-286.93104	876.31053	-809.26612	-283.23316	882.39903	-614.40204	-285.51074	883.15581	-780.34603	
